<svg xmlns="http://www.w3.org/2000/svg" xmlns:svg="http://www.w3.org/2000/svg" id="svg13885" width="42.561" height="42.96" version="1.1" viewBox="0 0 42.561 42.96"><metadata id="metadata13890"/><g id="layer1" transform="translate(-2.619064,-1004.9434)"><g id="g14539" transform="matrix(0.22887389,0,0,0.22887389,-60.771454,797.07484)"><path color="#000" style="isolation:auto;mix-blend-mode:normal;solid-color:#000;solid-opacity:1" id="path12526" fill="#fff" fill-opacity="1" fill-rule="nonzero" stroke-dasharray="none" stroke-dashoffset="0" stroke-linecap="butt" stroke-linejoin="miter" stroke-miterlimit="4" stroke-opacity="1" stroke-width="1" d="m 386.54552,984.91324 c 0,0 55.875,-12.791 75.166,20.99996 5.834,7.666 -10.5,44.998 -24.5,50.166 -3,11 -18.162,42.035 -28.5,39.168 0,0 -8.986,-1.314 -9.166,-36 0,0 6.129,47.451 14.834,22 11.273,-32.965 9.297,-85.42996 -7.5,-91.66796 0,0 5.666,-3 16.832,0 0,0 17.502,12.33396 15.168,58.33396 0,0 7.438,-29.291 -8.396,-57.29196 0,0 7.229,0.792 13.063,3.625 -10e-4,0.001 -16.667,-15.167 -57.001,-9.333 z" clip-rule="nonzero" color-interpolation="sRGB" color-interpolation-filters="linearRGB" color-rendering="auto" display="inline" enable-background="accumulate" image-rendering="auto" opacity="1" overflow="visible" shape-rendering="auto" text-rendering="auto" visibility="visible"/><path color="#000" style="isolation:auto;mix-blend-mode:normal;solid-color:#000;solid-opacity:1" id="path12528" fill="#fff" fill-opacity="1" fill-rule="nonzero" stroke-dasharray="none" stroke-dashoffset="0" stroke-linecap="butt" stroke-linejoin="miter" stroke-miterlimit="4" stroke-opacity="1" stroke-width="1" d="m 353.34751,985.40424 c 0,0 -55.875,-12.792 -75.166,20.99996 -5.834,7.666 10.5,44.999 24.5,50.165 3,11 18.162,42.037 28.5,39.168 0,0 8.987,-1.313 9.166,-36 0,0 -6.129,47.453 -14.834,22 -11.273,-32.963 -9.297,-85.42996 7.5,-91.66696 0,0 -5.666,-3 -16.832,0 0,0 -17.502,12.33396 -15.168,58.33296 0,0 -7.438,-29.291 8.396,-57.29096 0,0 -7.229,0.792 -13.063,3.625 10e-4,0 16.667,-15.167 57.001,-9.333 z" clip-rule="nonzero" color-interpolation="sRGB" color-interpolation-filters="linearRGB" color-rendering="auto" display="inline" enable-background="accumulate" image-rendering="auto" opacity="1" overflow="visible" shape-rendering="auto" text-rendering="auto" visibility="visible"/><path color="#000" style="isolation:auto;mix-blend-mode:normal;solid-color:#000;solid-opacity:1" id="path12530" fill="#fff" fill-opacity="1" fill-rule="nonzero" stroke-dasharray="none" stroke-dashoffset="0" stroke-linecap="butt" stroke-linejoin="miter" stroke-miterlimit="4" stroke-opacity="1" stroke-width="1" d="m 385.49152,957.75924 c 0.645,6.076 5.848,9.273 5.848,9.273 -5.15,9.721 -20.81301,10.83 -20.81301,10.83 0,0 -15.296,-1.207 -20.646,-10.818 0,0 5.133,-3.304 5.652,-9.393 0,0 -31.52,-1.756 -57.587,28.057 0,0 27.267,-12.266 72.761,-0.754 45.24901,-12.451 72.94201,-0.338 72.94201,-0.338 -26.683,-29.268 -58.157,-26.857 -58.157,-26.857 z" clip-rule="nonzero" color-interpolation="sRGB" color-interpolation-filters="linearRGB" color-rendering="auto" display="inline" enable-background="accumulate" image-rendering="auto" opacity="1" overflow="visible" shape-rendering="auto" text-rendering="auto" visibility="visible"/><path id="path12532" fill="#000" fill-opacity="1" fill-rule="nonzero" stroke="#ffbc26" stroke-dasharray="none" stroke-dashoffset="0" stroke-linecap="butt" stroke-linejoin="miter" stroke-miterlimit="4" stroke-opacity="1" stroke-width="1" d="M 370.74251,977.25724" clip-rule="nonzero" color="#000" color-interpolation="sRGB" color-interpolation-filters="linearRGB" color-rendering="auto" display="inline" enable-background="accumulate" image-rendering="auto" opacity="1" overflow="visible" shape-rendering="auto" text-rendering="auto" visibility="visible" style="isolation:auto;mix-blend-mode:normal;solid-color:#000;solid-opacity:1"/><path color="#000" style="isolation:auto;mix-blend-mode:normal;solid-color:#000;solid-opacity:1" id="path12534" fill="#fff" fill-opacity="1" fill-rule="nonzero" stroke-dasharray="none" stroke-dashoffset="0" stroke-linecap="butt" stroke-linejoin="miter" stroke-miterlimit="4" stroke-opacity="1" stroke-width="1" d="m 357.79551,955.87224 c 0,0 1.749,-23.418 11.417,-45.834 0,0 1.666,-4.08399 3.166,0 1.5,4.082 8.50201,24.334 11.41801,45.834 -10e-4,0 -12.74101,5.989 -26.00101,0 z" clip-rule="nonzero" color-interpolation="sRGB" color-interpolation-filters="linearRGB" color-rendering="auto" display="inline" enable-background="accumulate" image-rendering="auto" opacity="1" overflow="visible" shape-rendering="auto" text-rendering="auto" visibility="visible"/><path color="#000" style="isolation:auto;mix-blend-mode:normal;solid-color:#000;solid-opacity:1" id="path12536" fill="#fff" fill-opacity="1" fill-rule="nonzero" stroke-dasharray="none" stroke-dashoffset="0" stroke-linecap="butt" stroke-linejoin="miter" stroke-miterlimit="4" stroke-opacity="1" stroke-width="1" d="m 369.25851,999.41324 c -1.659,-17.949 -22.167,-7.586 -25.896,-6.959 -7.501,1.26 -10.521,0.625 -10.521,0.625 -3.167,3.5 -4.416,6.334 -4.416,6.334 0,0 33.291,-4.854 40.833,0 z" clip-rule="nonzero" color-interpolation="sRGB" color-interpolation-filters="linearRGB" color-rendering="auto" display="inline" enable-background="accumulate" image-rendering="auto" opacity="1" overflow="visible" shape-rendering="auto" text-rendering="auto" visibility="visible"/><path color="#000" style="isolation:auto;mix-blend-mode:normal;solid-color:#000;solid-opacity:1" id="path12538" fill="#fff" fill-opacity="1" fill-rule="nonzero" stroke-dasharray="none" stroke-dashoffset="0" stroke-linecap="butt" stroke-linejoin="miter" stroke-miterlimit="4" stroke-opacity="1" stroke-width="1" d="m 371.34751,999.41324 c 1.66,-17.949 22.16901,-7.586 25.89601,-6.959 7.5,1.26 10.521,0.625 10.521,0.625 3.166,3.5 4.416,6.334 4.416,6.334 0,0 -33.289,-4.854 -40.83301,0 z" clip-rule="nonzero" color-interpolation="sRGB" color-interpolation-filters="linearRGB" color-rendering="auto" display="inline" enable-background="accumulate" image-rendering="auto" opacity="1" overflow="visible" shape-rendering="auto" text-rendering="auto" visibility="visible"/><path id="path12540" fill="#000" fill-opacity="1" fill-rule="nonzero" stroke="#ffbc26" stroke-dasharray="none" stroke-dashoffset="0" stroke-linecap="butt" stroke-linejoin="miter" stroke-miterlimit="4" stroke-opacity="1" stroke-width="1" d="M 311.96651,1043.4752" clip-rule="nonzero" color="#000" color-interpolation="sRGB" color-interpolation-filters="linearRGB" color-rendering="auto" display="inline" enable-background="accumulate" image-rendering="auto" opacity="1" overflow="visible" shape-rendering="auto" text-rendering="auto" visibility="visible" style="isolation:auto;mix-blend-mode:normal;solid-color:#000;solid-opacity:1"/><path color="#000" style="isolation:auto;mix-blend-mode:normal;solid-color:#000;solid-opacity:1" id="path12542" fill="#fff" fill-opacity="1" fill-rule="nonzero" stroke-dasharray="none" stroke-dashoffset="0" stroke-linecap="butt" stroke-linejoin="miter" stroke-miterlimit="4" stroke-opacity="1" stroke-width="1" d="m 377.78952,999.41324 c 0,0 -2.04101,1.65096 -7.44801,1.68796 -5.407,-0.035 -7.448,-1.68796 -7.448,-1.68796 -18.667,-1.523 -38.302,1.60896 -38.302,1.60896 l 9.968,53.873 c 8.25,5 27.75,5.996 27.75,5.996 2.36,3.201 13.704,3.201 16.06301,0 0,0 19.5,-0.996 27.75,-5.996 l 8.969,-53.873 c -10e-4,10e-4 -18.634,-3.13296 -37.302,-1.60896 z m -43.15601,25.42396 19.117,-21.063 0.733,10.834 -3.924,0.041 -0.028,-1.803 -11.006,12.52 11.857,15.551 -0.303,-13.941 -4.061,-0.281 0.076,-3.711 7.477,0.467 0.717,29.85 -20.655,-28.464 z m 50.04901,28.461 0.717,-29.85 7.477,-0.465 0.076,3.711 -4.061,0.281 -0.305,13.939 11.857,-15.549 -11.006,-12.52 -0.027,1.803 -3.924,-0.041 0.732,-10.835 19.117,21.063 -20.653,28.463 z" clip-rule="nonzero" color-interpolation="sRGB" color-interpolation-filters="linearRGB" color-rendering="auto" display="inline" enable-background="accumulate" image-rendering="auto" opacity="1" overflow="visible" shape-rendering="auto" text-rendering="auto" visibility="visible"/></g></g></svg>